<?xml version="1.0" standalone="no"?>
<!DOCTYPE svg PUBLIC "-//W3C//DTD SVG 20010904//EN"
 "http://www.w3.org/TR/2001/REC-SVG-20010904/DTD/svg10.dtd">
<svg version="1.0" xmlns="http://www.w3.org/2000/svg"
 width="968.000000pt" height="968.000000pt" viewBox="0 0 968.000000 968.000000"
 preserveAspectRatio="xMidYMid meet">
<metadata>
Created by potrace 1.14, written by Peter Selinger 2001-2017
</metadata>
<g transform="translate(0.000000,968.000000) scale(0.100000,-0.100000)"
fill="#000000" stroke="none">
<path d="M4568 9675 c-2 -2 -41 -6 -88 -9 -128 -10 -245 -22 -305 -31 -16 -3
-46 -7 -65 -10 -19 -2 -47 -7 -61 -9 -14 -3 -41 -8 -60 -10 -19 -3 -34 -5 -34
-6 0 -1 -9 -3 -20 -5 -111 -16 -332 -70 -502 -122 -46 -13 -89 -26 -95 -27 -7
-2 -26 -9 -43 -16 -16 -7 -34 -14 -40 -14 -13 -2 -82 -25 -120 -41 -16 -7 -77
-32 -135 -55 -58 -23 -114 -47 -125 -53 -11 -6 -23 -10 -27 -9 -5 1 -8 -3 -8
-10 0 -6 -3 -8 -6 -5 -6 6 -61 -19 -124 -54 -8 -4 -35 -18 -60 -30 -126 -62
-421 -240 -552 -333 -32 -23 -83 -59 -114 -81 -31 -22 -62 -44 -68 -50 -6 -5
-29 -23 -51 -40 -22 -16 -45 -34 -51 -40 -6 -5 -30 -26 -54 -45 -60 -47 -120
-100 -147 -127 -12 -13 -25 -23 -28 -23 -8 0 -304 -298 -375 -379 -36 -41 -70
-79 -75 -85 -35 -38 -195 -247 -195 -255 0 -5 -4 -11 -8 -13 -5 -1 -37 -43
-70 -93 -34 -49 -65 -94 -70 -100 -11 -13 -146 -236 -155 -255 -4 -8 -17 -31
-28 -50 -22 -37 -158 -297 -159 -305 0 -3 -12 -30 -25 -60 -14 -30 -26 -58
-26 -62 -1 -5 -6 -17 -12 -28 -6 -11 -12 -22 -12 -25 -1 -3 -6 -16 -12 -30 -6
-14 -25 -63 -43 -110 -17 -47 -35 -94 -40 -105 -12 -28 -100 -303 -105 -329
-2 -12 -4 -21 -5 -21 -1 0 -3 -7 -5 -15 -1 -8 -9 -35 -16 -60 -7 -25 -12 -49
-11 -53 1 -4 -2 -16 -7 -25 -5 -9 -12 -35 -15 -57 -4 -22 -9 -48 -12 -57 -6
-20 -9 -34 -34 -173 -10 -60 -22 -130 -25 -155 -3 -25 -8 -61 -10 -80 -27
-214 -27 -985 0 -1200 3 -19 8 -57 11 -85 10 -87 21 -157 30 -195 5 -23 11
-52 29 -145 3 -16 10 -44 16 -62 5 -17 12 -44 15 -60 3 -15 10 -46 16 -68 6
-22 12 -45 14 -51 4 -22 66 -229 74 -249 5 -11 14 -38 21 -60 21 -69 130 -349
142 -364 7 -8 11 -16 10 -17 -5 -7 51 -129 116 -254 35 -69 69 -135 75 -147 6
-13 14 -23 19 -23 4 0 7 -6 7 -13 0 -18 246 -408 269 -427 4 -3 24 -30 45 -60
155 -220 514 -607 747 -805 91 -78 280 -225 288 -225 5 0 11 -4 13 -8 3 -8
205 -152 213 -152 2 0 30 -17 62 -39 145 -96 610 -341 647 -341 3 0 35 -13 71
-30 36 -16 68 -30 71 -30 3 0 20 -7 37 -15 37 -17 190 -70 262 -91 28 -8 57
-18 65 -21 8 -3 20 -7 25 -8 6 -2 51 -14 100 -28 50 -14 104 -29 120 -33 17
-4 35 -8 40 -10 39 -11 129 -28 138 -26 4 1 7 -1 7 -5 0 -5 10 -9 23 -10 26
-2 85 -11 147 -24 46 -10 57 -12 149 -24 30 -4 63 -9 75 -11 136 -26 935 -26
1191 1 22 2 63 6 90 9 107 10 454 84 618 132 49 14 94 27 100 28 23 4 222 70
227 76 3 3 12 6 21 7 16 3 188 70 254 99 22 10 42 18 45 19 37 8 427 208 500
255 8 6 22 13 30 17 8 4 52 31 97 60 46 29 86 53 89 52 4 0 10 3 13 8 3 5 42
34 86 63 44 30 82 57 85 61 3 3 21 16 41 30 39 26 66 48 202 159 136 111 157
130 337 310 162 162 205 208 285 305 22 26 45 53 50 59 6 6 26 31 45 56 19 25
38 50 43 55 95 121 245 343 331 490 26 44 51 87 56 95 78 129 311 639 326 715
1 6 13 42 27 80 40 110 119 384 142 490 3 11 7 29 9 40 34 154 53 256 62 335
3 25 7 56 10 70 13 71 19 264 19 625 0 457 -8 621 -39 782 -3 11 -7 36 -10 54
-19 120 -23 144 -26 144 -1 0 -10 38 -21 85 -10 47 -21 94 -24 105 -2 11 -19
70 -36 130 -17 61 -32 115 -33 120 -2 6 -6 17 -9 25 -8 21 -47 142 -51 160
-33 127 -197 498 -326 735 -91 169 -280 459 -385 590 -9 11 -28 35 -43 54
-169 214 -409 469 -622 661 -46 41 -92 83 -102 93 -10 9 -20 17 -23 17 -3 0
-16 10 -29 23 -49 47 -267 209 -371 275 -27 17 -55 36 -62 42 -7 5 -17 10 -23
10 -5 0 -10 5 -10 10 0 6 -4 10 -9 10 -5 0 -53 26 -108 58 -165 99 -348 195
-478 252 -27 12 -63 28 -80 36 -16 7 -66 27 -110 44 -44 17 -89 35 -100 39
-11 5 -33 14 -50 19 -16 6 -39 13 -50 18 -11 4 -27 8 -35 10 -8 2 -23 7 -35
12 -23 11 -191 60 -315 92 -47 11 -102 26 -123 31 -22 6 -41 8 -45 5 -3 -3
-10 -1 -17 4 -6 5 -29 12 -49 15 -21 2 -46 7 -55 9 -9 3 -34 7 -56 11 -22 3
-65 10 -95 15 -73 13 -173 25 -285 36 -38 3 -86 8 -105 10 -41 6 -657 14 -662
9z m520 -99 c7 -4 12 -2 12 4 0 6 5 8 11 4 6 -3 40 -8 76 -10 88 -4 254 -19
324 -29 20 -3 54 -8 75 -10 22 -3 50 -7 64 -10 56 -12 77 -16 110 -21 30 -5
64 -12 140 -29 8 -2 44 -11 80 -20 36 -9 72 -18 80 -19 8 -2 22 -6 30 -8 14
-5 147 -44 180 -53 43 -12 306 -109 365 -135 11 -5 67 -30 123 -55 128 -57
318 -151 437 -218 96 -54 297 -177 305 -187 3 -3 21 -16 40 -27 19 -12 45 -31
57 -43 13 -11 24 -19 27 -18 5 4 262 -203 335 -268 141 -127 220 -204 345
-335 226 -236 403 -464 573 -735 168 -267 369 -696 483 -1029 22 -66 41 -122
42 -125 1 -9 9 -39 34 -130 4 -14 7 -27 7 -30 0 -3 4 -16 9 -30 5 -14 13 -43
18 -65 5 -22 16 -71 24 -110 9 -38 18 -81 21 -95 10 -54 27 -146 30 -165 2
-11 9 -54 15 -95 25 -151 32 -295 33 -635 0 -263 -7 -488 -18 -546 -3 -14 -7
-45 -9 -70 -3 -24 -5 -44 -6 -44 -1 0 -3 -9 -4 -20 -3 -23 -18 -115 -22 -130
-1 -5 -4 -26 -7 -45 -6 -37 -25 -122 -59 -260 -22 -95 -28 -119 -32 -137 -1
-7 -5 -16 -9 -19 -4 -4 -7 -20 -7 -36 0 -15 -4 -28 -8 -28 -5 0 -9 -6 -9 -12
-1 -35 -134 -420 -154 -444 -5 -6 -10 -19 -12 -30 -15 -87 -356 -730 -429
-808 -10 -11 -18 -24 -18 -28 0 -8 -38 -67 -51 -78 -3 -3 -21 -27 -39 -55 -19
-27 -39 -55 -45 -62 -5 -6 -23 -30 -39 -52 -17 -23 -33 -41 -38 -41 -4 0 -8
-5 -8 -11 0 -6 -6 -16 -12 -23 -7 -7 -26 -29 -43 -47 -178 -204 -407 -438
-559 -574 -43 -38 -84 -75 -90 -80 -6 -6 -63 -50 -126 -98 -63 -48 -120 -91
-125 -95 -12 -10 -240 -161 -267 -177 -9 -5 -29 -17 -45 -26 -15 -9 -68 -39
-117 -68 -98 -57 -388 -201 -405 -201 -6 0 -11 -5 -11 -12 0 -6 -3 -8 -6 -5
-4 3 -16 1 -28 -5 -11 -7 -23 -13 -26 -13 -3 -1 -18 -7 -35 -14 -90 -39 -266
-103 -385 -140 -74 -23 -145 -47 -158 -52 -13 -5 -28 -7 -33 -4 -5 4 -9 2 -9
-4 0 -5 -8 -10 -17 -10 -10 0 -45 -7 -78 -15 -33 -9 -69 -18 -80 -20 -11 -3
-60 -14 -110 -25 -49 -11 -106 -22 -125 -25 -19 -3 -44 -7 -55 -10 -11 -2 -42
-7 -70 -11 -27 -4 -59 -9 -70 -10 -82 -12 -122 -17 -172 -20 -32 -2 -58 -4
-58 -5 0 -9 -631 -18 -755 -10 -42 2 -144 14 -235 26 -22 3 -58 7 -80 10 -22
3 -51 7 -65 10 -14 3 -41 7 -60 10 -19 3 -42 7 -50 10 -8 3 -33 8 -55 10 -22
3 -76 15 -120 26 -44 10 -91 21 -105 24 -14 3 -50 12 -80 21 -30 9 -62 17 -70
19 -41 7 -247 71 -275 85 -11 5 -33 13 -50 18 -16 5 -55 19 -85 31 -30 12 -61
22 -67 23 -7 0 -13 4 -13 9 0 4 -6 8 -14 8 -36 0 -512 228 -588 281 -14 11
-29 19 -33 19 -4 0 -27 14 -52 30 -24 17 -46 30 -49 30 -4 0 -266 173 -289
191 -100 80 -167 129 -174 129 -5 0 -11 3 -13 8 -1 4 -37 36 -78 72 -166 144
-341 318 -558 555 -25 27 -140 164 -161 190 -66 87 -151 207 -151 215 0 5 -4
10 -10 10 -5 0 -10 4 -10 9 0 6 -20 39 -45 75 -24 36 -58 89 -75 118 -17 29
-35 60 -41 68 -47 74 -169 310 -239 464 -79 173 -204 512 -194 528 3 4 1 8 -5
8 -6 0 -13 17 -18 38 -9 45 -8 44 -16 62 -8 19 -76 293 -83 334 -2 17 -9 47
-14 66 -5 19 -11 51 -14 70 -3 19 -8 46 -11 60 -12 57 -27 158 -30 205 -2 28
-5 50 -6 50 -8 0 -22 331 -22 530 0 175 10 433 18 495 3 19 7 55 10 80 5 44
10 74 20 135 3 17 8 46 11 65 5 33 59 287 68 320 2 8 14 51 25 95 12 44 24 90
27 102 2 12 9 35 15 50 6 16 13 36 15 46 2 9 6 25 8 35 3 9 21 62 41 117 20
55 44 120 53 144 8 25 21 56 29 70 7 15 13 30 13 34 0 8 17 47 83 192 59 130
159 319 235 445 71 119 189 299 201 310 4 3 19 24 34 48 28 43 218 283 267
337 162 178 245 262 379 384 92 85 251 218 316 266 22 16 42 31 45 34 3 4 28
22 55 40 28 19 52 37 55 41 8 9 203 135 240 156 19 10 38 24 42 29 4 6 8 6 8
2 0 -5 7 -1 16 7 8 9 21 16 29 16 7 0 15 4 17 8 2 4 17 14 33 23 17 8 68 35
115 59 47 24 87 45 90 45 3 1 67 32 144 68 76 37 141 67 143 67 3 0 19 7 36
14 150 69 489 187 607 211 8 2 15 4 15 5 0 1 9 3 20 5 11 2 38 8 60 14 162 41
418 87 537 97 35 2 77 7 93 9 17 2 82 7 145 11 63 3 116 7 117 8 7 6 452 -2
461 -8z"/>
<path d="M4243 8830 c-40 -4 -75 -9 -78 -12 -3 -2 14 -10 37 -17 121 -37 214
-137 233 -251 15 -87 14 -19 26 -1540 1 -80 0 -149 -1 -155 -1 -5 -2 -12 -1
-15 6 -15 3 -458 -2 -467 -4 -6 -3 -13 0 -17 10 -10 10 -199 0 -213 -5 -7 -6
-13 -1 -13 8 0 11 -527 4 -555 -1 -5 -1 -14 0 -20 6 -30 4 -215 -3 -215 -5 0
-5 -5 -1 -12 7 -11 7 -69 0 -323 -5 -159 -3 -147 -28 -139 -13 4 -25 10 -28
14 -6 8 -274 210 -298 225 -10 6 -19 12 -22 15 -3 3 -23 18 -45 35 -22 16 -46
35 -53 42 -7 7 -17 13 -20 13 -4 0 -18 10 -32 23 -14 12 -44 35 -67 51 -24 16
-43 33 -43 37 0 5 -5 9 -10 9 -8 0 -218 152 -315 227 -5 5 -30 24 -55 43 -24
19 -40 28 -35 20 9 -16 79 -103 105 -131 8 -8 26 -29 39 -45 85 -101 207 -242
228 -261 13 -13 21 -23 18 -23 -4 0 0 -6 7 -14 41 -42 88 -96 88 -100 0 -3 12
-18 28 -33 15 -16 50 -55 77 -88 28 -33 62 -73 77 -90 34 -38 60 -68 111 -129
23 -27 47 -54 52 -60 6 -6 48 -56 95 -111 46 -55 86 -102 90 -105 3 -3 15 -17
28 -31 l22 -26 -26 -29 c-114 -127 -221 -240 -509 -539 -319 -331 -343 -356
-411 -430 -58 -63 -84 -102 -51 -78 6 5 39 27 72 49 33 21 62 41 65 44 7 8
401 285 490 344 41 28 77 53 80 57 11 12 266 178 279 181 15 3 19 -10 26 -102
10 -120 15 -175 20 -230 3 -30 7 -89 10 -130 2 -41 5 -75 6 -75 2 0 5 -36 13
-140 4 -49 9 -106 11 -125 2 -19 6 -69 10 -110 3 -41 7 -91 10 -110 2 -19 6
-71 10 -115 3 -44 8 -96 10 -115 3 -19 7 -64 9 -100 3 -36 8 -92 11 -125 3
-33 8 -85 11 -115 2 -30 7 -77 9 -105 3 -27 8 -81 11 -120 6 -74 9 -108 19
-220 3 -38 8 -95 10 -125 2 -30 5 -55 5 -55 1 0 3 -22 5 -50 8 -113 16 -201
20 -225 3 -14 7 -63 10 -110 3 -47 8 -101 10 -120 6 -50 14 -126 20 -195 11
-109 13 -126 19 -132 3 -4 6 5 7 18 0 13 2 32 4 42 6 30 19 178 30 347 3 47 7
105 9 130 9 101 16 190 21 275 4 50 8 110 11 135 2 25 6 81 9 125 2 44 7 109
9 145 11 138 19 277 20 327 1 29 3 53 6 53 3 0 5 35 6 78 0 42 4 131 7 197 14
252 21 453 33 883 3 134 7 251 9 260 2 9 4 28 4 41 1 21 4 23 36 17 19 -4 63
-23 98 -42 34 -19 70 -38 80 -41 9 -3 17 -9 17 -14 0 -5 4 -9 10 -9 11 0 336
-216 364 -242 11 -10 25 -18 32 -18 7 0 14 -3 16 -8 2 -4 27 -25 57 -46 30
-21 59 -42 65 -47 6 -5 74 -54 151 -110 77 -55 147 -105 155 -112 56 -44 41
-26 -66 79 -66 66 -191 187 -278 269 -500 477 -687 658 -706 686 -19 25 -18
26 6 55 41 47 182 199 285 308 54 56 125 130 159 166 34 36 147 153 250 260
416 432 396 410 370 410 -5 0 -10 -4 -10 -8 0 -5 -16 -14 -35 -22 -19 -8 -35
-17 -35 -22 0 -4 -5 -8 -10 -8 -9 0 -305 -184 -335 -208 -5 -4 -28 -19 -50
-32 -22 -13 -44 -28 -50 -33 -5 -4 -47 -31 -92 -60 -45 -29 -171 -109 -279
-179 -109 -70 -201 -125 -206 -122 -8 5 -6 1909 2 1917 3 3 52 8 110 11 58 4
119 9 135 11 42 6 110 13 175 20 30 3 73 8 95 12 22 3 54 7 70 9 17 1 31 3 33
4 1 2 10 3 20 4 9 1 22 4 27 6 6 3 25 5 43 5 17 0 32 2 32 6 0 4 8 6 18 5 17
-3 131 32 168 52 43 22 150 70 158 70 5 0 12 4 15 9 3 5 34 25 69 44 34 18 62
37 62 41 0 5 5 8 12 8 37 0 243 191 308 285 19 28 38 52 41 55 8 8 64 129 82
180 82 230 57 535 -60 752 -98 180 -289 333 -498 400 -33 10 -67 22 -75 25 -8
3 -26 7 -40 9 -30 5 -65 12 -65 14 0 0 -31 3 -70 5 -38 2 -106 7 -150 10 -252
16 -1259 27 -1412 15z m1305 -94 c7 -4 12 -2 12 4 0 6 5 8 12 4 7 -4 21 -9 33
-10 143 -16 227 -47 355 -130 104 -67 166 -133 216 -229 90 -172 126 -386 99
-599 -7 -58 -9 -73 -21 -118 -3 -13 -6 -27 -8 -33 -17 -69 -86 -210 -127 -260
-106 -129 -276 -254 -370 -270 -67 -12 -125 -18 -191 -19 -38 -1 -68 -3 -68
-6 0 -3 -33 -6 -72 -6 -40 -1 -136 -3 -213 -5 l-140 -4 3 370 c7 981 14 1154
53 1238 17 38 77 64 168 74 31 3 57 6 58 7 7 6 191 -2 201 -8z"/>
<path d="M2755 5215 c-147 -55 -320 -188 -416 -320 -46 -63 -70 -111 -102
-205 -35 -101 -38 -120 -42 -230 -3 -75 1 -113 19 -180 52 -194 153 -331 301
-405 92 -46 135 -55 220 -42 38 6 155 57 155 68 0 4 9 10 19 14 30 9 116 101
184 194 l61 84 26 -99 c34 -125 50 -161 93 -205 60 -62 161 -73 254 -27 121
60 186 198 93 198 -16 0 -32 -5 -35 -10 -4 -6 -9 -9 -13 -6 -4 2 -16 0 -27 -4
-30 -11 -69 13 -104 66 -17 26 -31 50 -32 53 0 3 -2 13 -5 21 -24 89 -32 182
-29 365 2 110 6 218 8 240 9 79 29 211 37 250 5 22 12 54 15 70 4 17 8 48 8
70 2 34 -1 40 -18 39 -33 -2 -91 -33 -139 -75 -45 -40 -73 -92 -90 -167 -10
-47 -19 -43 -52 21 -50 100 -120 178 -189 212 -51 24 -148 29 -200 10z m132
-172 c116 -58 214 -202 241 -352 8 -48 8 -217 -1 -261 -41 -217 -166 -377
-317 -406 -49 -9 -64 -8 -107 12 -44 21 -163 137 -163 159 0 8 -4 15 -8 15
-14 0 -60 112 -69 171 -10 57 -9 312 1 362 9 51 38 131 52 148 8 9 12 18 9 20
-2 3 21 33 53 67 92 101 194 122 309 65z"/>
<path d="M7140 5200 c-7 -4 -22 -7 -32 -5 -10 2 -18 0 -18 -6 0 -5 -6 -9 -14
-9 -20 0 -28 -28 -14 -53 6 -12 40 -53 76 -92 125 -135 162 -256 166 -540 3
-196 -35 -353 -105 -429 -64 -70 -179 -97 -263 -61 -72 31 -136 118 -154 209
-8 41 -8 219 1 331 7 91 17 233 21 313 3 54 -4 57 -91 43 -150 -25 -171 -35
-164 -74 3 -18 12 -308 13 -432 2 -254 -9 -291 -109 -374 -6 -6 -23 -12 -37
-13 -14 -2 -28 -6 -31 -10 -10 -10 -78 2 -122 22 -90 40 -183 179 -207 310 -4
19 -9 49 -13 65 -6 33 -6 307 -1 340 2 11 7 25 11 31 3 6 9 26 12 44 8 48 99
222 125 240 4 3 21 30 39 61 27 48 29 58 17 74 -18 25 -58 10 -139 -52 -297
-228 -403 -579 -292 -968 8 -28 32 -79 54 -112 42 -65 166 -193 187 -193 7 0
14 -4 16 -10 2 -5 27 -18 55 -28 124 -44 251 1 401 142 44 42 69 50 77 26 15
-47 138 -147 210 -170 47 -16 156 -16 184 0 12 6 21 9 21 6 0 -3 21 5 48 17
202 95 359 306 431 582 28 107 30 312 5 385 -3 8 -8 26 -10 40 -16 91 -148
300 -190 300 -8 0 -14 4 -14 9 0 10 -49 28 -96 37 -15 3 -30 7 -34 9 -3 2 -12
0 -20 -5z"/>
</g>
</svg>
